# xmcd
#
# Track frame offsets: 
#        150
#        12731
#        25411
#        35154
#        48784
#        64630
#        78687
#        91883
#        106890
#        122408
#        134117
#        147676
#
# Disc length: 2177 seconds
#
# Revision: 0
# Processed by: cddbd v1.5.1PL0 Copyright (c) Steve Scherf et al.
# Submitted via: ExactAudioCopy v0.95b3
#
DISCID=ad087f0c
DTITLE=Your Trailer Door - Rae Spoon
DYEAR=2005
DGENRE=Bluegrass
TTITLE0=Your Trailer Door
TTITLE1=Keep the Engine Running
TTITLE2=Lord Send An Angel
TTITLE3=Highway 401/Prince George
TTITLE4=Teamster In The Snow
TTITLE5=Long Road To Nowhere
TTITLE6=Living A Country Song
TTITLE7=Progress
TTITLE8=Honky Tonk (Toronto)
TTITLE9=Don't Turn On Me
TTITLE10=Dead To Me
TTITLE11=Rapture
EXTD=
EXTT0=
EXTT1=
EXTT2=
EXTT3=
EXTT4=
EXTT5=
EXTT6=
EXTT7=
EXTT8=
EXTT9=
EXTT10=
EXTT11=
PLAYORDER=
